<?xml version="1.0" encoding="iso-8859-1"?>
<!-- Generator: Adobe Illustrator 19.0.0, SVG Export Plug-In . SVG Version: 6.00 Build 0)  -->
<svg version="1.1" id="Layer_1" xmlns="http://www.w3.org/2000/svg" xmlns:xlink="http://www.w3.org/1999/xlink" x="0px" y="0px"
	 viewBox="0 0 512.001 512.001" style="enable-background:new 0 0 512.001 512.001;" xml:space="preserve">
<g>
	<path style="fill:#E84848;" d="M138.587,341.13h234.827h46.866h44.068h22.523c8.319,0,15.129-6.809,15.129-15.129V185.996
		c0-8.322-6.81-15.129-15.129-15.129h-22.523H373.41H138.587H91.72H47.652H25.128c-8.32,0-15.128,6.807-15.128,15.129v140.006
		c0,8.32,6.808,15.129,15.128,15.129H47.65h90.937V341.13z"/>
	<g>
		<path style="fill:#BD2326;" d="M256.001,110.97c48.284,0,91.052,23.603,117.41,59.896h90.938
			c-33.571-82.068-114.2-139.892-208.348-139.892c-94.149,0-174.779,57.824-208.349,139.893H91.72h46.867
			C164.948,134.574,207.714,110.97,256.001,110.97z"/>
		<path style="fill:#BD2326;" d="M256.001,401.025c-48.287,0-91.055-23.603-117.414-59.895H47.65
			c33.57,82.069,114.2,139.897,208.351,139.897c94.15,0,174.777-57.828,208.348-139.897H420.28h-46.866
			C347.055,377.421,304.287,401.025,256.001,401.025z"/>
	</g>
</g>
<g>
	<path style="fill:#000001;" d="M70.081,226.273c-1.025-3.254-5.211-4.838-9.491-4.838c-4.278,0-8.466,1.584-9.489,4.838
		l-17.303,56.752c-0.094,0.369-0.188,0.744-0.188,1.025c0,3.441,5.302,5.953,9.304,5.953c2.325,0,4.187-0.746,4.745-2.699
		l3.163-11.629h19.629l3.163,11.629c0.561,1.953,2.42,2.699,4.745,2.699c4.002,0,9.304-2.512,9.304-5.953
		c0-0.281-0.092-0.656-0.186-1.025L70.081,226.273z M53.799,264.51l6.791-24.936l6.794,24.936H53.799z"/>
	<path style="fill:#000001;" d="M176.438,221.994H157.18c-3.256,0-5.396,2.047-5.396,4.373v59.168c0,2.979,3.63,4.469,7.258,4.469
		c3.627,0,7.257-1.49,7.257-4.469v-20.092h9.21c12.838,0,22.887-5.957,22.887-21.586v-0.465
		C198.395,227.763,188.72,221.994,176.438,221.994z M183.882,244.97c0,6.328-3.162,9.307-8.373,9.307h-9.21v-19.629h9.21
		c5.211,0,8.373,2.975,8.373,9.301V244.97z"/>
	<path style="fill:#000001;" d="M362.073,221.994c-2.325,0-4.185,0.744-4.744,2.697l-12.932,47.725l-13.025-47.725
		c-0.557-1.953-2.418-2.697-4.744-2.697c-4,0-9.304,2.51-9.304,5.953c0,0.279,0.094,0.65,0.188,1.025l17.397,56.75
		c1.023,3.256,5.21,4.838,9.488,4.838c4.281,0,8.466-1.582,9.489-4.838l17.306-56.75c0.094-0.375,0.186-0.746,0.186-1.025
		C371.378,224.503,366.075,221.994,362.073,221.994z"/>
	<path style="fill:#000001;" d="M120.61,221.994h-19.262c-3.254,0-5.393,2.047-5.393,4.373v59.168c0,2.979,3.627,4.469,7.255,4.469
		c3.63,0,7.257-1.49,7.257-4.469v-20.092h9.211c12.838,0,22.886-5.957,22.886-21.586v-0.465
		C142.564,227.763,132.888,221.994,120.61,221.994z M128.05,244.97c0,6.328-3.161,9.307-8.371,9.307h-9.211v-19.629h9.211
		c5.21,0,8.371,2.975,8.371,9.301V244.97z"/>
	<path style="fill:#000001;" d="M455.502,221.994h-16.468c-3.814,0-6.326,2.047-6.326,4.373v59.262c0,2.328,2.512,4.375,6.326,4.375
		h16.468c12.838,0,22.886-5.953,22.886-21.957v-24.098C478.388,227.947,468.34,221.994,455.502,221.994z M463.876,268.046
		c0,6.328-3.166,9.303-8.374,9.303h-8.28v-42.701h8.28c5.208,0,8.374,2.975,8.374,9.301V268.046z"/>
	<path style="fill:#000001;" d="M419.115,234.648c2.791,0,4.372-2.979,4.372-6.422c0-2.979-1.303-6.232-4.372-6.232h-33.12
		c-3.164,0-6.327,1.488-6.327,4.463v59.078c0,2.979,3.163,4.469,6.327,4.469h33.12c3.069,0,4.372-3.256,4.372-6.234
		c0-3.441-1.581-6.42-4.372-6.42h-24.933v-15.816h13.954c3.07,0,4.372-2.975,4.372-5.49c0-2.975-1.58-5.672-4.372-5.672h-13.954
		v-15.723L419.115,234.648L419.115,234.648z"/>
	<path style="fill:#000001;" d="M286.893,221.994c-12.84,0-22.795,5.953-22.795,21.955v24.654c0,16.004,9.955,21.957,22.795,21.957
		c12.837,0,22.886-5.953,22.886-21.957v-24.654C309.778,227.947,299.729,221.994,286.893,221.994z M295.265,268.603
		c0,6.422-3.162,9.303-8.372,9.303c-5.21,0-8.28-2.881-8.28-9.303v-24.654c0-6.42,3.07-9.301,8.28-9.301s8.372,2.881,8.372,9.301
		V268.603z"/>
	<path style="fill:#000001;" d="M242.97,260.786c6.512-2.51,11.256-8.463,11.256-18.883c0-15.166-10.142-19.91-22.886-19.91h-19.259
		c-2.697,0-4.465,2.047-4.465,4.373v59.168c0,2.979,3.629,4.469,7.257,4.469s7.257-1.49,7.257-4.469v-22.42h6.141l12.746,24.748
		c1.021,1.953,2.789,2.697,4.65,2.697c4.281,0,9.117-3.906,9.117-7.535c0-0.465-0.092-1.115-0.465-1.678L242.97,260.786z
		 M231.34,251.949h-9.21v-17.301h9.21c5.21,0,8.372,2.141,8.372,8.65C239.712,249.808,236.55,251.949,231.34,251.949z"/>
	<path style="fill:#000001;" d="M486.872,160.867h-15.924c-17.712-40.002-46.088-74.123-82.41-98.975
		c-39.124-26.77-84.955-40.918-132.537-40.918c-47.584,0-93.414,14.148-132.539,40.918c-36.321,24.852-64.697,58.973-82.409,98.975
		H25.128C11.272,160.867,0,172.138,0,185.996v140.006c0,13.857,11.272,25.129,25.128,25.129h15.923
		c17.712,40.002,46.088,74.125,82.409,98.977c39.125,26.77,84.957,40.92,132.541,40.92c47.583,0,93.414-14.15,132.539-40.92
		c36.32-24.852,64.695-58.975,82.408-98.977h15.924c13.855,0,25.129-11.271,25.129-25.129V185.996
		C512.001,172.138,500.727,160.867,486.872,160.867z M256.001,40.974c82.654,0,156.801,46.584,192.881,119.893h-70.489
		c-29.28-37.596-74.644-59.896-122.392-59.896s-93.111,22.301-122.395,59.896H109.09c32.07-49.664,86.935-79.895,146.91-79.895
		c21.412,0,42.406,3.869,62.396,11.502c5.162,1.967,10.939-0.617,12.908-5.777c1.97-5.158-0.616-10.939-5.775-12.908
		c-22.276-8.504-45.67-12.816-69.529-12.816c-35.752,0-70.794,9.818-101.34,28.395c-28.789,17.51-52.502,42.148-68.903,71.5H63.119
		C99.198,87.558,173.345,40.974,256.001,40.974z M351.774,160.867h-191.55c25.17-25.266,59.692-39.896,95.776-39.896
		S326.606,135.601,351.774,160.867z M256.001,471.027c-82.656,0-156.803-46.586-192.884-119.897h70.489
		c29.28,37.596,74.645,59.895,122.395,59.895c47.748,0,93.113-22.299,122.393-59.895h24.515
		c-32.07,49.664-86.935,79.895-146.908,79.895c-21.411,0-42.405-3.869-62.399-11.502c-5.16-1.967-10.939,0.617-12.909,5.777
		c-1.969,5.16,0.617,10.939,5.777,12.908c22.279,8.504,45.674,12.816,69.531,12.816c35.75,0,70.791-9.82,101.338-28.396
		c28.789-17.508,52.502-42.146,68.904-71.498h22.639C412.801,424.441,338.655,471.027,256.001,471.027z M160.224,351.13h191.554
		c-25.169,25.266-59.69,39.895-95.776,39.895C219.914,391.025,185.393,376.396,160.224,351.13z M492.001,326.001
		c0,2.781-2.349,5.129-5.129,5.129h-22.605c-0.018,0-0.035,0-0.053,0h-43.523c-0.281-0.01-0.561-0.012-0.842,0H47.784
		c-0.018,0-0.035,0-0.053,0H25.128c-2.779,0-5.128-2.348-5.128-5.129V185.996c0-2.781,2.349-5.129,5.128-5.129h22.584
		c0.029,0,0.06,0,0.09,0h43.586c0.105,0.002,0.211,0.018,0.316,0.018c0.092,0,0.182-0.016,0.273-0.018h46.576
		c0.008,0,0.017,0,0.025,0c0.006,0,0.011,0,0.017,0h325.716c0.014,0,0.027,0.002,0.04,0.002c0.02,0,0.041-0.002,0.061-0.002h22.459
		c2.78,0,5.129,2.348,5.129,5.129L492.001,326.001L492.001,326.001z"/>
	<path style="fill:#000001;" d="M343.211,104.246l0.428,0.244c1.544,0.863,3.217,1.271,4.868,1.271c3.505,0,6.908-1.846,8.738-5.125
		c2.694-4.82,0.969-10.912-3.853-13.608l-0.085-0.047c-4.768-2.791-10.893-1.186-13.681,3.584
		C336.839,95.333,338.444,101.458,343.211,104.246z"/>
	<path style="fill:#000001;" d="M168.703,407.701l-0.257-0.147c-4.795-2.74-10.903-1.074-13.644,3.721
		c-2.739,4.795-1.073,10.904,3.722,13.645l0.256,0.146c1.565,0.895,3.27,1.318,4.952,1.318c3.472,0,6.847-1.81,8.692-5.041
		C175.164,416.548,173.498,410.441,168.703,407.701z"/>
</g>
<g>
</g>
<g>
</g>
<g>
</g>
<g>
</g>
<g>
</g>
<g>
</g>
<g>
</g>
<g>
</g>
<g>
</g>
<g>
</g>
<g>
</g>
<g>
</g>
<g>
</g>
<g>
</g>
<g>
</g>
</svg>
