<svg height="512" viewBox="0 0 64 64" width="512" xmlns="http://www.w3.org/2000/svg"><g id="hand_&#xB7;_ecommerce_&#xB7;_shopping_&#xB7;_online_&#xB7;_sale" data-name="hand &#xB7; ecommerce &#xB7; shopping &#xB7; online &#xB7; sale"><path d="m58 53h-52v-30a2 2 0 0 1 2-2h48a2 2 0 0 1 2 2z" fill="#004fac"/><path d="m10 25h44v24h-44z" fill="#ffcd00"/><path d="m50 25v6a16 16 0 0 1 -16 16h-24v2h44v-24z" fill="#ebbf00"/><path d="m38 31h6a4 4 0 0 0 4-4v-18h-4v16a6 6 0 0 1 -6 6z" fill="#ab2300"/><path d="m18.5 44.66a1.965 1.965 0 0 0 1.11.34h14.85a1.923 1.923 0 0 0 1-.27l13.4-7.73a2.013 2.013 0 0 0 1-1.74 1.967 1.967 0 0 0 -.27-.99 1.988 1.988 0 0 0 -2.73-.73l-8.435 4.86a2 2 0 0 1 -1.425.6 2 2 0 0 0 1.425-.6l-.015.008-.02.02.02-.02.015-.008a2 2 0 0 0 -1.425-3.4h-8l-.453-.3a10 10 0 0 0 -11.094 0l-.453.3h-1v8z" fill="#ffbcab"/><path d="m44 9v16a6 6 0 0 1 -6 6h-8a6 6 0 0 1 -6-6v-16z" fill="#ed1c24"/><path d="m41 9v14a6 6 0 0 1 -6 6h-8a5.989 5.989 0 0 1 -1.671-.241 5.989 5.989 0 0 0 4.671 2.241h8a6 6 0 0 0 6-6v-16z" fill="#cf1820"/><path d="m16 43v-8-2h-6v12h6z" fill="#006df0"/><path d="m61 53v4a4 4 0 0 1 -4 4h-50a4 4 0 0 1 -4-4v-4z" fill="#58595b"/><path d="m29 57h6a2 2 0 0 0 2-2v-2h-10v2a2 2 0 0 0 2 2z" fill="#d1d3d4"/><g fill="#231f20"><path d="m61 52h-2v-29a3.009 3.009 0 0 0 -3-3h-7v-11a1 1 0 0 0 -1-1h-3a5.992 5.992 0 0 0 -8.5-5.45 5.992 5.992 0 0 0 -8.5 5.45h-4a1 1 0 0 0 -1 1v11h-15a3.009 3.009 0 0 0 -3 3v29h-2a1 1 0 0 0 -1 1v4a5 5 0 0 0 5 5h50a5 5 0 0 0 5-5v-4a1 1 0 0 0 -1-1zm-16-27v-15h2v17a3.009 3.009 0 0 1 -3 3h-1.11a6.97 6.97 0 0 0 2.11-5zm-6-21a4 4 0 0 1 4 4h-3a6.016 6.016 0 0 0 -1.49-3.95 3.87 3.87 0 0 1 .49-.05zm-2.5.9a3.976 3.976 0 0 1 1.5 3.1h-3a3.976 3.976 0 0 1 1.5-3.1zm-2.5-.9a3.87 3.87 0 0 1 .49.05 6.016 6.016 0 0 0 -1.49 3.95h-3a4 4 0 0 1 4-4zm-9 6h3v2a1 1 0 0 0 0 2h2a1 1 0 0 0 0-2v-2h8v2a1 1 0 0 0 0 2h2a1 1 0 0 0 0-2v-2h3v15a5 5 0 0 1 -5 5h-8a5 5 0 0 1 -5-5zm-1.92 16a7 7 0 0 0 6.92 6h14a5 5 0 0 0 5-5v-1h4v22h-42v-2h5a1 1 0 0 0 1-1v-.14l.93.62a2.952 2.952 0 0 0 1.68.52h14.85a2.925 2.925 0 0 0 1.5-.4l13.4-7.73a3.006 3.006 0 0 0 1.1-4.1 3.011 3.011 0 0 0 -4.1-1.1l-6.43 3.71a2.993 2.993 0 0 0 -2.93-2.38h-7.7l-.2-.13a10.972 10.972 0 0 0 -12.1-.07v-.8a1 1 0 0 0 -1-1h-5v-6zm-12.08 18v-10h4v10zm20-4h6a2.982 2.982 0 0 0 1.98-.77l8.39-4.83a1.006 1.006 0 0 1 1.49.86.992.992 0 0 1 -.5.87l-13.41 7.74a.922.922 0 0 1 -.49.13h-14.85a1.023 1.023 0 0 1 -.56-.17l-2.05-1.37v-6.46a.967.967 0 0 0 .55-.17l.46-.3a8.975 8.975 0 0 1 9.98 0l.46.3a.967.967 0 0 0 .55.17h8a1 1 0 0 1 .71 1.7.01.01 0 0 0 -.01.01.991.991 0 0 1 -.7.29h-6a1 1 0 0 0 0 2zm-24-17a1 1 0 0 1 1-1h15v2h-13a1 1 0 0 0 -1 1v24a1 1 0 0 0 1 1h44a1 1 0 0 0 1-1v-24a1 1 0 0 0 -1-1h-5v-2h7a1 1 0 0 1 1 1v29h-50zm29 31v1a1 1 0 0 1 -1 1h-6a1 1 0 0 1 -1-1v-1zm24 3a3.009 3.009 0 0 1 -3 3h-50a3.009 3.009 0 0 1 -3-3v-3h22v1a3.009 3.009 0 0 0 3 3h6a3.009 3.009 0 0 0 3-3v-1h22z"/><path d="m29.293 26.707a1 1 0 0 0 1.414 0l8-8a1 1 0 0 0 -1.414-1.414l-8 8a1 1 0 0 0 0 1.414z"/><circle cx="30" cy="20" r="2"/><circle cx="38" cy="24" r="2"/></g></g></svg>